/* XPM */
static char *f22dc26c71744502d062899e42e729b0a7cUUJLzuAGngvsX[] = {
/* columns rows colors chars-per-pixel */
"48 32 7 1 ",
"  c None",
". c black",
"X c #46390A",
"o c #F64E32",
"O c #BE9918",
"+ c #FFD541",
"@ c #FFF285",
/* pixels */
"                                                ",
"                                                ",
"                                                ",
"                                                ",
"                   .           .                ",
"                  ...         ...               ",
"                  ....        ....              ",
"                  ..@.        ..@.              ",
"                  .+@.        .+@.              ",
"                  .++@.       .++@.             ",
"                  .++@.       .O+@.             ",
"                  .O+++........OO+.             ",
"                  .OOXX++++++++XXO.             ",
"                  .OX+++@@@@@@@@+X.             ",
"                  .X+++++@@@@@@@@+.             ",
"       ......     .++++++++++++++++.            ",
"       .@@@@@.   .++++++++++++++++++.           ",
"       .@@@@@.   .+++..++++++++++..+.           ",
"       .+++++.  .++++..++++++++++..++.          ",
"        ...++.  .+oo++++++++++++++++o.          ",
"          .++.  .+oo+++++++++..+++++o.          ",
"          .++.  .++++++++++++++++++++.          ",
"          .OO.  .++++++++++++++++++++.          ",
"          .OOO. .++X+X+++++++++++++++.          ",
"           .... .O+X+X++++++++++++++O.          ",
"                 .OOX+++++++++++++OO.           ",
"                 .OOOOOOOOOOOOOOOOO.            ",
"                  ..OOOOOOOOOOOOOO.             ",
"                    .OOO..........              ",
"                     .O.      .O.               ",
"                      .        .                ",
"                                                "
};
